<?xml version="1.0" standalone="no"?><!DOCTYPE svg PUBLIC "-//W3C//DTD SVG 1.1//EN" "http://www.w3.org/Graphics/SVG/1.1/DTD/svg11.dtd"><svg t="1606313117202" class="icon" viewBox="0 0 1024 1024" version="1.1" xmlns="http://www.w3.org/2000/svg" p-id="2976" width="32" height="32" xmlns:xlink="http://www.w3.org/1999/xlink"><defs><style type="text/css"></style></defs><path d="M608.0336 936.448C608.0336 984.768 565.0256 1024 512.0336 1024S416.0336 984.768 416.0336 936.448m96-778.88c-31.68 0-57.6-23.616-57.6-52.48V52.48C454.4336 23.616 480.3536 0 512.0336 0s57.6 23.68 57.6 52.48v52.608c0 28.864-25.92 52.48-57.6 52.48zM384.0336 576c-17.728 0-32-18.56-32-41.472V361.472C352.0336 338.56 366.3056 320 384.0336 320s32 18.56 32 41.472v173.056C415.9056 557.44 401.6336 576 384.0336 576z" p-id="2977" fill="#1296db"></path><path d="M833.9536 896H190.1136a92.8 92.8 0 0 1-81.728-48.192 95.04 95.04 0 0 1 1.152-95.744l1.856-2.816 64.64-90.496V404.48C176.0336 216.704 326.6256 64 512.0336 64s336 152.704 336 340.48v254.08l66.496 93.376c17.6 29.824 18.048 65.536 1.152 95.744A92.672 92.672 0 0 1 833.9536 896zM173.7936 792.448a18.624 18.624 0 0 0 16.256 27.008h643.84c9.728 0 14.4-6.528 15.936-9.408a18.304 18.304 0 0 0 0.32-17.6l-64.384-90.048a71.808 71.808 0 0 1-13.44-42.176V404.48c0-145.472-116.8-263.808-260.416-263.808-143.552 0-260.352 118.336-260.352 263.808v255.68c0 15.104-4.608 29.696-13.44 42.048l-64.32 90.24z" p-id="2978" fill="#1296db"></path></svg>