<?xml version="1.0" standalone="no"?><!DOCTYPE svg PUBLIC "-//W3C//DTD SVG 1.1//EN" "http://www.w3.org/Graphics/SVG/1.1/DTD/svg11.dtd"><svg t="1611378659964" class="icon" viewBox="0 0 1205 1024" version="1.1" xmlns="http://www.w3.org/2000/svg" p-id="1913" xmlns:xlink="http://www.w3.org/1999/xlink" width="37.65625" height="32"><defs><style type="text/css"></style></defs><path d="M1202.543909 160.658953a7.6313 7.6313 0 0 1-2.610708 5.422239v2.610708l-129.330457 129.932928a40.164738 40.164738 0 0 1-16.065895 5.221416 37.754854 37.754854 0 0 1-16.065895-5.422239 20.082369 20.082369 0 0 1 0-32.332615l93.985487-91.374779H258.471738a207.85252 207.85252 0 0 0-152.023534 63.058639 207.250049 207.250049 0 0 0-63.259463 152.023534v21.488135a20.082369 20.082369 0 0 1-21.488135 21.688959A18.877427 18.877427 0 0 1 0.212471 411.487743v-21.488135a249.2222 249.2222 0 0 1 75.308885-182.950383 250.025495 250.025495 0 0 1 182.950382-75.308884h873.984703L1038.470954 40.164738a20.082369 20.082369 0 0 1 0-32.13179 20.082369 20.082369 0 0 1 32.13179 0l129.129633 129.129633a20.082369 20.082369 0 0 1 2.610708 8.032948 23.295548 23.295548 0 0 1 0.200824 15.463424z m-40.164738 453.861541a21.488135 21.488135 0 0 1 42.97627 0v22.090606a257.054324 257.054324 0 0 1-258.460091 258.259267H72.910648l93.985487 91.575603a20.082369 20.082369 0 0 1 0 32.13179 40.164738 40.164738 0 0 1-16.065895 5.42224 40.164738 40.164738 0 0 1-16.065896-5.42224L5.634711 889.448127a21.086488 21.086488 0 0 1-2.811532-8.032948 24.50049 24.50049 0 0 1 0-16.065895 8.635419 8.635419 0 0 1 2.610708-5.422239v-2.811532l129.330457-128.92881a20.082369 20.082369 0 0 1 32.131791 0 20.082369 20.082369 0 0 1 0 32.332615l-93.985487 91.374779h873.984702A215.885468 215.885468 0 0 0 1162.178347 636.6111z" fill="#26A3FF" p-id="1914"></path><path d="M861.545282 557.888213l-27.512846 27.512846-8.635419-47.394391L863.754342 500.653461a14.860953 14.860953 0 0 0 4.016474-14.258482 14.459306 14.459306 0 0 0-10.442832-10.242008 14.057658 14.057658 0 0 0-14.057658 3.81565l-23.295548 23.295548-16.467543-87.960776 80.329477-81.534419A66.472642 66.472642 0 0 0 837.044792 220.90606a66.271818 66.271818 0 0 0-47.394392 20.082369L703.09539 326.740145l-80.329477-14.660129 26.10708-26.10708A14.860953 14.860953 0 0 0 642.848282 261.070798a15.061777 15.061777 0 0 0-14.258482 4.016474l-40.164738 40.164738-47.394391-8.434595 30.525201-30.525201a14.660129 14.660129 0 0 0-6.426358-24.50049 14.860953 14.860953 0 0 0-14.258482 4.016474l-42.775446 42.775446-1.60659 1.807413-85.952539-15.463424a14.860953 14.860953 0 0 0-13.05354 4.016474l-34.140028 34.340851a14.459306 14.459306 0 0 0-4.217297 12.451069 15.061777 15.061777 0 0 0 7.832124 10.844479l210.664051 107.039027-122.502451 122.703275-112.862914 18.074133a14.660129 14.660129 0 0 0-7.832124 4.016473l-37.353207 36.148265a14.860953 14.860953 0 0 0-4.217297 13.05354 15.262601 15.262601 0 0 0 8.635418 10.844479l116.477741 50.406746 49.201804 116.879389a15.061777 15.061777 0 0 0 10.643656 8.635418 14.860953 14.860953 0 0 0 13.05354-4.016474L537.616668 783.212395a14.860953 14.860953 0 0 0 4.217298-8.233772l16.065895-114.871151L683.013021 535.39596l112.461267 220.90606a14.660129 14.660129 0 0 0 23.295548 3.81565l34.340851-34.340851a14.057658 14.057658 0 0 0 4.016474-12.852716l-16.668367-92.981369 41.570504-41.771328a14.459306 14.459306 0 0 0 0-20.082369 14.459306 14.459306 0 0 0-20.082369 0zM810.335241 261.070798A37.353207 37.353207 0 0 1 863.754342 261.070798a35.947441 35.947441 0 0 1 11.246127 26.307904A36.750735 36.750735 0 0 1 863.754342 313.284958L536.411726 640.828398l-75.509708 24.701314 22.893901-77.517945z m-403.454795 59.042165l15.061776-14.860953 257.054325 46.591096L608.105784 421.729751z m-46.591097 292.800942l89.969014-14.66013-20.082369 69.886645L341.612746 630.586389z m135.355168 171.503432l-36.951559-87.55913 67.878407-22.090606-12.852716 91.575604z m316.899784-58.841342l-107.842322-211.868994 73.501471-73.300647 17.270838 95.592077 31.730143 174.917435z" fill="#26A3FF" p-id="1915"></path></svg>