<?xml version="1.0" standalone="no"?><!DOCTYPE svg PUBLIC "-//W3C//DTD SVG 1.1//EN" "http://www.w3.org/Graphics/SVG/1.1/DTD/svg11.dtd"><svg t="1600735183827" class="icon" viewBox="0 0 1024 1024" version="1.1" xmlns="http://www.w3.org/2000/svg" p-id="3301" xmlns:xlink="http://www.w3.org/1999/xlink" width="48" height="48"><defs><style type="text/css"></style></defs><path d="M687.114313 30.877378c265.710903 96.710859 402.719168 390.526033 306.008309 656.236935s-390.526033 402.719168-656.236935 306.008309S-65.833481 602.596589 30.877378 336.885687 421.403411-65.833481 687.114313 30.877378z m-10.299905 28.298758C426.725411-31.848815 150.201087 97.096595 59.176136 347.185592S97.096595 873.798913 347.185592 964.823864 873.798913 926.903405 964.823864 676.814408 926.903405 150.201087 676.814408 59.176136z m-257.658665 848.991128a15.057455 15.057455 0 0 1-18.519035 10.530002c-7.50465-2.062779-14.97411-4.335646-22.395786-6.830529a15.057455 15.057455 0 0 1 9.565626-28.549503 396.047515 396.047515 0 0 0 20.816539 6.338285 15.057455 15.057455 0 0 1 10.522713 18.516381z m-104.093587-57.700023a390.904242 390.904242 0 0 0 19.103399 10.387332 15.057455 15.057455 0 0 1-13.65179 26.847619c-6.968694-3.535305-13.826648-7.261457-20.566573-11.175802a15.057455 15.057455 0 0 1 15.112311-26.051859z m186.428236 68.374422a15.057455 15.057455 0 0 1-15.98033 14.079245c-7.788118-0.490098-15.574843-1.210842-23.329031-2.134384a15.057455 15.057455 0 0 1 3.577857-29.903329 388.499394 388.499394 0 0 0 21.652258 1.978138 15.057455 15.057455 0 0 1 14.079246 15.98033z m-250.90768-115.222425c5.389582 4.83454 10.923029 9.523313 16.578472 14.058358a15.057455 15.057455 0 1 1-18.824422 23.503722 418.645333 418.645333 0 0 1-17.866585-15.14635 15.057455 15.057455 0 0 1 20.112535-22.41573z m333.145922 108.946338a15.057455 15.057455 0 0 1-12.799217 17.020251c-7.730925 1.099252-15.497576 1.979115-23.278082 2.647549a15.057455 15.057455 0 0 1-2.566693-30.009859c7.231713-0.61226 14.432337-1.433965 21.613798-2.45252a15.057455 15.057455 0 0 1 17.030194 12.794579z m-386.832433-168.09623a391.742061 391.742061 0 0 0 13.379673 17.153897 15.057455 15.057455 0 1 1-23.216677 19.172522 421.849212 421.849212 0 0 1-14.411224-18.470471 15.057455 15.057455 0 1 1 24.248228-17.855948z m466.459604 145.200968a15.057455 15.057455 0 0 1-9.090991 19.261522 423.470545 423.470545 0 0 1-22.246852 7.299203 15.057455 15.057455 0 0 1-8.598279-28.861723 393.355636 393.355636 0 0 0 20.671947-6.782704 15.057455 15.057455 0 0 1 19.264175 9.083702z m-506.926289-213.771614c3.027601 6.583569 6.248755 13.088987 9.6469 19.493715a15.057455 15.057455 0 1 1-26.61919 14.095329 424.168727 424.168727 0 0 1-10.384128-20.983849 15.057455 15.057455 0 0 1 27.349128-12.607848z m580.528837 175.152902c4.33643 7.092965 2.092856 16.364518-5.007399 20.698295a423.835152 423.835152 0 0 1-20.311505 11.644261 15.057455 15.057455 0 1 1-14.252434-26.527774 393.704727 393.704727 0 0 0 18.873043-10.822181 15.057455 15.057455 0 0 1 20.698295 5.007399zM130.474415 600.119358c1.63762 7.06831 3.475413 14.085645 5.498799 21.046698a15.057455 15.057455 0 0 1-28.913368 8.422629 422.62497 422.62497 0 0 1-5.925812-22.663331 15.057455 15.057455 0 1 1 29.340381-6.805996z m670.388185 198.563404a15.057455 15.057455 0 0 1-0.728699 21.281473 420.747636 420.747636 0 0 1-17.560808 15.518326 15.057455 15.057455 0 0 1-19.305104-23.124591c5.57-4.643081 11.009481-9.449243 16.303195-14.39927a15.057455 15.057455 0 0 1 21.284126 0.721409z m-547.005649-184.333048l390.117549 141.991176a11.29503 11.29503 0 0 1-6.689773 21.555429l-1.036483-0.327716L246.123405 635.574774a11.29503 11.29503 0 0 1 6.68712-21.548139l1.039136 0.320426 390.117549 141.991176z m-133.368615-92.717063c0.177475 7.246828 0.563726 14.48709 1.144174 21.715479a15.057455 15.057455 0 1 1-30.023071 2.421542 419.165091 419.165091 0 0 1-1.225862-23.3963 15.057455 15.057455 0 0 1 30.104759-0.740721z m732.446248 212.598056a15.057455 15.057455 0 0 1 3.630456 20.985836 418.443636 418.443636 0 0 1-14.037131 18.765633 15.057455 15.057455 0 0 1-23.605163-18.70449c4.501249-5.675999 8.844134-11.483936 13.026003-17.416523a15.057455 15.057455 0 0 1 20.985835-3.630456zM126.705438 442.01804c-1.304458 7.144987-2.403464 14.31522-3.308944 21.498102a15.057455 15.057455 0 0 1-29.888695-3.754151c0.974571-7.735616 2.162554-15.467855 3.575206-23.159599a15.057455 15.057455 0 0 1 29.622433 5.415648z m616.698698 50.60041c5.80263 2.111985 8.78853 8.515266 6.676545 14.317896l-2.594875 7.129363 64.885946 23.616553a10.643394 10.643394 0 0 1-7.283164 20.010327l-64.878656-23.6139-5.120767 14.069192 47.230204 17.190389a15.515152 15.515152 0 0 1 9.272979 19.885967l-11.59469 31.85615a15.515152 15.515152 0 0 1-19.885968 9.272979l-31.579139-11.493867c7.375237 22.877172 23.993859 46.873182 49.651753 71.913738l-21.017028 12.76613c-24.780743-30.557895-39.720342-59.779386-45.155385-88.009878l-20.841257 57.260881a11.170909 11.170909 0 1 1-20.994441-7.641352l20.981878-57.647237c-24.02364 20.414323-55.124758 33.101261-93.074719 38.135773l-5.092424-23.61483c34.190978-1.465918 61.801708-8.917966 83.043592-22.279201l-30.981381-11.2763a15.515152 15.515152 0 0 1-9.272979-19.885968l11.59469-31.856149a15.515152 15.515152 0 0 1 19.885968-9.272979l46.829269 17.044459 5.120767-14.069191-65.279592-23.759829a10.643394 10.643394 0 0 1 7.28051-20.003037l65.279592 23.759828 2.594876-7.129362c2.111985-5.80263 8.522556-8.785876 14.317896-6.676545z m-168.031611 50.785257a15.515152 15.515152 0 0 1 9.272979 19.885967l-21.411705 58.828176c-2.008508 5.518331-8.123443 8.369772-13.649064 6.35861l-2.668043-0.971089c-4.053094-1.475205-6.139514-5.949548-4.664309-10.002641l-50.321052-18.315366-0.361458 0.834327c-1.749428 3.49098-5.87968 5.199058-9.633894 3.832635l-2.7701-1.008234c-5.583938-2.032387-8.465852-8.199691-6.433464-13.783629l21.374559-58.726118a15.515152 15.515152 0 0 1 19.885968-9.27298zM398.330409 376.433086a15.515152 15.515152 0 0 1 9.27298 19.885967l-20.249583 55.635271a15.515152 15.515152 0 0 1-19.885968 9.272979L259.813007 422.044149l-19.251962 52.894329c-2.597529 7.136652-0.322996 12.001425 6.799077 14.593647L345.822596 525.369535c3.171035 1.154163 6.577727 1.04846 10.215439-0.32705 5.378297-1.848218 14.091428-20.842753 18.360503-32.571939s26.776136-4.660026 17.898825 13.696872c-8.867368 18.352261-20.576447 38.047791-26.128706 40.963687-6.33955 2.629345-13.743403 2.625837-21.813275 0.142693l-110.147921-40.090565c-17.036115-6.200639-22.108783-18.143342-15.616287-35.981327L252.191896 378.88468a10.961455 10.961455 0 0 1 20.600796 7.498077l-5.768159 15.847887 101.232573 36.845644 16.442173-45.174499L264.447782 350.133824a10.542545 10.542545 0 0 1 7.208873-19.806214z m69.520873 175.981813c11.565756 1.089035 13.837426 20.160377-2.808204 20.326465-16.645629 0.166088-41.811245-1.844237-61.969939-4.954616-20.158693-3.110379-12.567753-23.966316 1.967418-21.259899 14.535171 2.706417 51.249605 4.808958 62.810725 5.88805z m95.022138 8.431997l-50.321052-18.315365-13.55544 37.243265 50.321052 18.315365 13.558093-37.250555z m327.98835 99.482387a15.057455 15.057455 0 0 1 7.822188 19.811972 423.928242 423.928242 0 0 1-9.905458 21.227071 15.057455 15.057455 0 0 1-26.930513-13.492087c3.239562-6.473688 6.314783-13.040214 9.206447-19.714826a15.057455 15.057455 0 0 1 19.804683-7.82484zM487.366339 398.454171c6.731318-9.602943 25.330493 2.532639 16.937089 13.866921-8.386114 11.336936-34.171805 35.344965-49.289052 46.667323 7.415913 1.807584 14.841769 3.610532 22.331974 5.214004 5.747821-5.313094 8.301935-6.818827 16.514088-14.842604 8.207516-8.03372 20.705424 5.554853 14.054507 12.2151-6.643627 6.662901-45.529828 40.036048-61.817213 50.26382 13.692376 1.84655 21.794033 2.178338 34.085761 2.474908 12.291728 0.29657 9.066561 18.638565-1.759822 18.512098-10.826383-0.126468-58.144784-5.915174-65.452209-7.022836-7.307425-1.107662-2.911532-20.352674 1.238846-20.641745 4.133146-0.287088 8.025865-1.115734 11.464101-2.555593 7.158948-3.338272 16.885116-9.919406 29.153282-19.628748l5.045568-4.041437c-3.977704-0.911162-0.616948-0.323616-12.154483-2.714994-11.537535-2.391378-13.865722-2.867274-19.006486-4.143967-5.148055-1.279347 0.768525-19.236139 1.272642-20.621189 0.504117-1.38505 8.00287-1.80105 11.880874-4.426482 15.931311-14.171386 38.769215-38.971637 45.500533-48.574579zM140.715101 345.575232a15.057455 15.057455 0 0 1 8.32132 19.59738 399.709091 399.709091 0 0 0-7.614686 20.467544 15.057455 15.057455 0 0 1-28.505711-9.731306 429.684364 429.684364 0 0 1 8.191754-22.007662 15.057455 15.057455 0 0 1 19.607323-8.325956z m566.381026 214.1371l-40.611123-14.78124-8.363035 22.97725 40.611123 14.78124 8.363035-22.97725z m62.0065 22.568521l-41.004768-14.924516-8.363036 22.97725 41.004769 14.924516 8.363035-22.97725zM580.001312 433.359327c5.744313 2.090759 8.709683 8.437036 6.618923 14.181348l-4.147025 11.393858 35.063634 12.762119a10.542545 10.542545 0 1 1-7.211526 19.813505l-35.063634-12.762119-8.50631 23.370896 29.319321 10.67136a10.542545 10.542545 0 1 1-7.211526 19.813504L510.2142 503.977914a10.542545 10.542545 0 1 1 7.211526-19.813504l28.532029 10.384809 8.50631-23.370896-35.063633-12.762118a10.542545 10.542545 0 1 1 7.211526-19.813505l35.063633 12.762119 4.147026-11.393858c2.090759-5.744313 8.434382-8.702393 14.178695-6.611634z m344.796249 164.874019c-1.602185 7.622759-3.417113 15.217619-5.449418 22.774637a15.057455 15.057455 0 1 1-29.08554-7.820698 392.393697 392.393697 0 0 0 5.059231-21.158246 15.057455 15.057455 0 1 1 29.478381 6.197017zM182.02778 273.781103a15.057455 15.057455 0 0 1 4.18788 20.883269c-4.010237 6.028077-7.864094 12.17086-11.54699 18.433656a15.057455 15.057455 0 0 1-25.961675-15.269363c3.966043-6.745875 8.117626-13.36643 12.437516-19.859683a15.057455 15.057455 0 0 1 20.883269-4.187879z m751.729215 238.868168c-0.009592 7.806155-0.23525 15.616222-0.68161 23.42026a15.057455 15.057455 0 1 1-30.078844-1.734733 388.328727 388.328727 0 0 0 0.642669-21.725557 15.057455 15.057455 0 1 1 30.117785 0.04003z m-696.607896-300.765654c5.833318 5.928912 5.761576 15.470855-0.167336 21.304172a389.244121 389.244121 0 0 0-15.052254 15.68012 15.057455 15.057455 0 1 1-22.301694-20.244394c5.242926-5.785801 10.66078-11.417123 16.221748-16.897291a15.057455 15.057455 0 0 1 21.299536 0.157393z m688.098979 216.088407c1.565205 7.652855 2.918311 15.344089 4.052029 23.071047a15.057455 15.057455 0 0 1-29.794329 4.378783 391.067152 391.067152 0 0 0-3.758241-21.428607 15.057455 15.057455 0 0 1 29.500541-6.021223z m-537.486379-181.545264l390.117549 141.991176a11.29503 11.29503 0 0 1-6.68712 21.54814l-1.039136-0.320427L380.035443 267.654474a11.29503 11.29503 0 0 1 6.689773-21.55543l1.036483 0.327716 390.117549 141.991176z m-84.222525-83.852545a15.057455 15.057455 0 0 1-4.458659 20.823721 392.73503 392.73503 0 0 0-17.939634 12.317676 15.057455 15.057455 0 0 1-17.740598-24.338332 422.857697 422.857697 0 0 1 19.320476-13.276303 15.057455 15.057455 0 0 1 20.825704 4.475891z m595.896915 183.033181c3.085088 7.174118 5.95939 14.428369 8.64014 21.760771a15.057455 15.057455 0 1 1-28.283636 10.344197 393.906424 393.906424 0 0 0-8.029516-20.217651 15.057455 15.057455 0 1 1 27.673012-11.887317zM378.845323 127.53101a15.057455 15.057455 0 0 1-8.579396 19.489005 394.007273 394.007273 0 0 0-20.052078 8.436508 15.057455 15.057455 0 0 1-12.44147-27.420659 424.122182 424.122182 0 0 1 21.57665-9.086904 15.057455 15.057455 0 0 1 19.496294 8.58205z m478.764034 142.876932c4.470513 6.407033 8.766019 12.931989 12.876574 19.579503a15.057455 15.057455 0 1 1-25.618914 15.838058 393.029818 393.029818 0 0 0-11.955065-18.187405 15.057455 15.057455 0 0 1 24.697405-17.230156z m-397.722947-162.013184c1.370848 8.209529-4.16163 15.970312-12.366522 17.351103a391.447273 391.447273 0 0 0-21.339924 4.195035 15.057455 15.057455 0 0 1-6.625709-29.382082 421.562182 421.562182 0 0 1 22.983035-4.513345 15.057455 15.057455 0 0 1 17.339177 12.353926z m341.77742 97.071303c5.674418 5.367495 11.202317 10.888048 16.566466 16.563641a15.057455 15.057455 0 1 1-21.878983 20.691333 389.554424 389.554424 0 0 0-15.379123-15.380239 15.057455 15.057455 0 1 1 20.694293-21.882025z m-259.663639-99.331012a15.057455 15.057455 0 0 1-15.601343 14.489614c-7.249348-0.269236-14.509362-0.327712-21.74756-0.196628a15.057455 15.057455 0 1 1-0.573701-30.110013 418.552242 418.552242 0 0 1 23.435643 0.208393 15.057455 15.057455 0 0 1 14.486961 15.608634z m191.522656 47.006086c6.656361 4.098572 13.190056 8.375393 19.601085 12.830465a15.057455 15.057455 0 0 1-17.213578 24.725691 388.809697 388.809697 0 0 0-18.183017-11.918069 15.057455 15.057455 0 1 1 15.79551-25.638087z m-109.806213-32.387699a15.057455 15.057455 0 0 1-18.230205 11.006622c-7.059359-1.743853-14.141311-3.289542-21.255799-4.632433a15.057455 15.057455 0 0 1 5.593925-29.590567c7.663898 1.443794 15.297244 3.10762 22.885457 4.986172a15.057455 15.057455 0 0 1 11.006622 18.230206zM656.211944 115.780941c7.348055 2.674473 14.607239 5.547752 21.760989 8.597299a15.057455 15.057455 0 0 1-11.832063 27.699821A398.041212 398.041212 0 0 0 645.912038 144.079699a15.057455 15.057455 0 1 1 10.299906-28.298758z" p-id="3302" fill="#3452b5"></path></svg>