<?xml version="1.0" standalone="no"?><!DOCTYPE svg PUBLIC "-//W3C//DTD SVG 1.1//EN" "http://www.w3.org/Graphics/SVG/1.1/DTD/svg11.dtd"><svg t="1600787256715" class="icon" viewBox="0 0 1024 1024" version="1.1" xmlns="http://www.w3.org/2000/svg" p-id="8516" xmlns:xlink="http://www.w3.org/1999/xlink" width="32" height="32"><defs><style type="text/css"></style></defs><path d="M512 1024C229.23264 1024 0 794.76736 0 512S229.23264 0 512 0s512 229.23264 512 512-229.23264 512-512 512z m275.70176-396.1856a15.7696 15.7696 0 0 0-23.04 0l-1.08544 1.14688a17.63328 17.63328 0 0 0 0 24.12544l31.80544 33.30048a15.7696 15.7696 0 0 0 23.01952 0l1.08544-1.14688a17.65376 17.65376 0 0 0 0-24.12544l-31.78496-33.30048z m-162.54976-0.18432a15.872 15.872 0 0 0-23.1424 0l-31.98976 33.52576a17.75616 17.75616 0 0 0 0 24.24832l1.08544 1.16736a15.85152 15.85152 0 0 0 23.18336 0l31.96928-33.50528a17.75616 17.75616 0 0 0 0-24.2688l-1.10592-1.16736z m213.95456-62.0544H550.58432c-9.05216 0-16.384 7.70048-16.384 17.16224v1.6384c0 9.48224 7.33184 17.16224 16.384 17.16224h127.09888v77.6192c0 9.48224 7.33184 17.16224 16.384 17.16224h1.55648c9.03168 0 16.384-7.68 16.384-17.16224v-77.6192h127.09888c9.05216 0 16.384-7.68 16.384-17.16224v-1.6384c0-9.46176-7.33184-17.14176-16.384-17.14176z m-36.6592-14.68416c9.05216 0 16.384-7.70048 16.384-17.16224v-1.6384c0-9.48224-7.33184-17.16224-16.384-17.16224H584.0896c-9.0112 0-16.36352 7.68-16.36352 17.16224v1.6384c0 9.46176 7.33184 17.16224 16.384 17.16224h218.3168z m-51.46624-88.2688v-24.49408h54.5792v24.51456H751.0016z m-85.77024-60.45696V379.4944h51.46624v22.69184H665.1904z m0 60.47744v-24.51456h51.46624v24.51456H665.1904z m-84.23424 0v-24.51456h49.90976v24.51456h-49.90976zM843.776 343.53152H545.8944c-9.05216 0-16.384 7.68-16.384 17.16224v1.6384c0 9.48224 7.33184 17.14176 16.384 17.14176h84.992v22.69184h-67.85024c-9.03168 0-16.36352 7.70048-16.36352 17.16224V481.44384c0 9.46176 7.33184 17.14176 16.384 17.14176H823.5008c9.05216 0 16.384-7.68 16.384-17.14176V419.328c0-9.46176-7.33184-17.16224-16.384-17.16224H751.0016V379.4944H843.776c9.05216 0 16.384-7.65952 16.384-17.16224v-1.6384c0-9.46176-7.33184-17.14176-16.384-17.14176z m-579.39968 163.2256V474.112h184.03328v32.6656H264.3968z m0 68.62848V542.72h184.03328v32.6656H264.3968z m222.24896-204.26752h-135.04512l12.41088-12.98432a17.73568 17.73568 0 0 0 0-24.2688l-1.10592-1.14688a15.85152 15.85152 0 0 0-23.1424 0l-36.6592 38.4H188.70272c-9.03168 0-16.384 7.70048-16.384 17.16224v1.6384c0 9.48224 7.35232 17.16224 16.384 17.16224h80.01536l-100.10624 104.89856a17.73568 17.73568 0 0 0 0 24.2688l1.10592 1.14688a15.85152 15.85152 0 0 0 23.1424 0l37.19168-38.93248V675.90144c0 9.46176 7.31136 17.14176 16.36352 17.14176h1.55648c9.05216 0 16.384-7.68 16.384-17.14176V611.328h184.03328v64.55296c0 9.46176 7.33184 17.14176 16.384 17.14176h1.55648c9.05216 0 16.384-7.68 16.384-17.14176V455.2704c0-9.46176-7.33184-17.14176-16.384-17.14176h-178.70848l29.63456-31.04768h169.34912c9.05216 0 16.384-7.68 16.384-17.16224v-1.6384c0-9.46176-7.33184-17.16224-16.384-17.16224z" fill="#FF5F1F" p-id="8517"></path></svg>