<?xml version="1.0" standalone="no"?><!DOCTYPE svg PUBLIC "-//W3C//DTD SVG 1.1//EN" "http://www.w3.org/Graphics/SVG/1.1/DTD/svg11.dtd"><svg t="1611378549195" class="icon" viewBox="0 0 1024 1024" version="1.1" xmlns="http://www.w3.org/2000/svg" p-id="1150" xmlns:xlink="http://www.w3.org/1999/xlink" width="32" height="32"><defs><style type="text/css"></style></defs><path d="M745.715767 89.841356H278.175859L46.112783 331.043903v110.305823l465.823999 498.986188 465.824-498.986188v-110.305823L745.715767 89.841356z m0 0" fill="#FC8614" p-id="1151"></path><path d="M45.552855 441.367788l466.40199 498.986189 466.401989-498.986189H45.552855z m0 0" fill="#F68508" p-id="1152"></path><path d="M46.112783 441.367788l465.823999 3.431817-233.182932-354.958249-232.641067 351.526432z m0 0" fill="#F59900" p-id="1153"></path><path d="M46.112783 331.043903l465.823999 609.292011-233.182932-850.494558-232.641067 241.202547z m0 0" fill="#FFA200" p-id="1154"></path><path d="M978.356834 441.367788l-465.823999 3.431817 233.182932-354.958249 232.641067 351.526432z m0 0" fill="#F59900" p-id="1155"></path><path d="M978.356834 331.043903l-465.823999 609.292011 233.182932-850.494558 232.641067 241.202547z m0 0" fill="#FFA200" p-id="1156"></path><path d="M46.112783 441.367788l465.823999 498.986189-465.823999-609.310074v110.323885z m932.244051 0l-465.823999 498.986189 465.823999-609.292012v110.305823z m0 0" fill="#F59900" p-id="1157"></path><path d="M278.75385 89.841356l233.200995 354.940187L745.155839 89.841356H278.75385z m0 0" fill="#F6AE2D" p-id="1158"></path><path d="M131.854021 444.799605L511.954845 89.841356l380.660751 354.940187H131.854021z m0 0" fill="#FCB81D" p-id="1159"></path><path d="M725.720918 351.056815c-15.443176 0-26.298555 1.137918-33.144127 3.431817-6.285644 2.275837-10.855379 5.725716-12.571288 9.71746l-129.180816 299.507312H475.938828l-124.03309-298.929321c-2.293899-4.569735-6.863634-8.001552-14.287196-10.295451-7.423562-2.275837-16.581095-3.431817-28.014464-3.431817v-26.858484h188.623499v26.858484h-45.155487c-9.717461 0-14.865186 2.853827-14.865186 8.001552 0 1.715908 0.57799 3.991745 1.715908 5.725716l98.872454 244.056373 98.872453-240.624556c1.137918-2.293899 1.715908-3.991745 1.715909-6.285644 0-7.423562-8.001552-10.855379-23.426667-10.855379H583.950752V324.216394h140.614185l1.155981 26.840421z m0 0" fill="#FFFFFF" p-id="1160"></path></svg>